STARTFONT 2.1
FONT -TakWolf-Retro Pixel Arcade-Regular-R-Normal-Sans Serif-8-80-75-75-M-80-ISO10646-1
SIZE 8 75 75
FONTBOUNDINGBOX 8 12 0 -3
STARTPROPERTIES 22
FOUNDRY "TakWolf"
FAMILY_NAME "Retro Pixel Arcade"
WEIGHT_NAME "Regular"
SLANT "R"
SETWIDTH_NAME "Normal"
ADD_STYLE_NAME "Sans Serif"
PIXEL_SIZE 8
POINT_SIZE 80
RESOLUTION_X 75
RESOLUTION_Y 75
SPACING "M"
AVERAGE_WIDTH 80
CHARSET_REGISTRY "ISO10646"
CHARSET_ENCODING "1"
DEFAULT_CHAR 65534
FONT_ASCENT 9
FONT_DESCENT 3
X_HEIGHT 5
CAP_HEIGHT 7
FONT_VERSION "2026.09.18"
COPYRIGHT "Copyright (c) 2023, TakWolf (https://takwolf.com)"
LICENSE "This Font Software is licensed under the SIL Open Font License, Version 1.1"
ENDPROPERTIES
CHARS 116
STARTCHAR .notdef
ENCODING 65534
SWIDTH 1000 0
DWIDTH 8 0
BBX 7 7 0 0
BITMAP
FE
FE
FE
FE
FE
FE
FE
ENDCHAR
STARTCHAR u0020
ENCODING 32
SWIDTH 1000 0
DWIDTH 8 0
BBX 0 0 0 0
BITMAP
ENDCHAR
STARTCHAR u0021
ENCODING 33
SWIDTH 1000 0
DWIDTH 8 0
BBX 3 7 2 0
BITMAP
E0
E0
E0
C0
C0
00
C0
ENDCHAR
STARTCHAR u0022
ENCODING 34
SWIDTH 1000 0
DWIDTH 8 0
BBX 5 3 1 4
BITMAP
D8
D8
D8
ENDCHAR
STARTCHAR u0023
ENCODING 35
SWIDTH 1000 0
DWIDTH 8 0
BBX 7 7 0 0
BITMAP
6C
6C
FE
6C
FE
6C
6C
ENDCHAR
STARTCHAR u0024
ENCODING 36
SWIDTH 1000 0
DWIDTH 8 0
BBX 7 7 0 0
BITMAP
10
7C
C0
7C
06
7C
10
ENDCHAR
STARTCHAR u0025
ENCODING 37
SWIDTH 1000 0
DWIDTH 8 0
BBX 7 7 0 0
BITMAP
42
A4
48
10
24
4A
84
ENDCHAR
STARTCHAR u0026
ENCODING 38
SWIDTH 1000 0
DWIDTH 8 0
BBX 7 7 0 0
BITMAP
30
48
68
70
9A
8C
7A
ENDCHAR
STARTCHAR u0027
ENCODING 39
SWIDTH 1000 0
DWIDTH 8 0
BBX 2 3 2 4
BITMAP
C0
C0
C0
ENDCHAR
STARTCHAR u0028
ENCODING 40
SWIDTH 1000 0
DWIDTH 8 0
BBX 4 7 2 0
BITMAP
30
60
C0
C0
C0
60
30
ENDCHAR
STARTCHAR u0029
ENCODING 41
SWIDTH 1000 0
DWIDTH 8 0
BBX 4 7 1 0
BITMAP
C0
60
30
30
30
60
C0
ENDCHAR
STARTCHAR u002A
ENCODING 42
SWIDTH 1000 0
DWIDTH 8 0
BBX 7 7 0 0
BITMAP
10
D6
7C
38
7C
D6
10
ENDCHAR
STARTCHAR u002B
ENCODING 43
SWIDTH 1000 0
DWIDTH 8 0
BBX 6 5 1 1
BITMAP
30
30
FC
30
30
ENDCHAR
STARTCHAR u002C
ENCODING 44
SWIDTH 1000 0
DWIDTH 8 0
BBX 3 3 0 -1
BITMAP
60
60
C0
ENDCHAR
STARTCHAR u002D
ENCODING 45
SWIDTH 1000 0
DWIDTH 8 0
BBX 6 1 1 3
BITMAP
FC
ENDCHAR
STARTCHAR u002E
ENCODING 46
SWIDTH 1000 0
DWIDTH 8 0
BBX 2 2 1 0
BITMAP
C0
C0
ENDCHAR
STARTCHAR u002F
ENCODING 47
SWIDTH 1000 0
DWIDTH 8 0
BBX 7 7 0 0
BITMAP
02
04
08
10
20
40
80
ENDCHAR
STARTCHAR u0030
ENCODING 48
SWIDTH 1000 0
DWIDTH 8 0
BBX 7 7 0 0
BITMAP
38
4C
C6
C6
C6
64
38
ENDCHAR
STARTCHAR u0031
ENCODING 49
SWIDTH 1000 0
DWIDTH 8 0
BBX 6 7 1 0
BITMAP
30
70
30
30
30
30
FC
ENDCHAR
STARTCHAR u0032
ENCODING 50
SWIDTH 1000 0
DWIDTH 8 0
BBX 7 7 0 0
BITMAP
7C
C6
0E
3C
78
E0
FE
ENDCHAR
STARTCHAR u0033
ENCODING 51
SWIDTH 1000 0
DWIDTH 8 0
BBX 7 7 0 0
BITMAP
7C
C6
06
3C
06
C6
7C
ENDCHAR
STARTCHAR u0034
ENCODING 52
SWIDTH 1000 0
DWIDTH 8 0
BBX 7 7 0 0
BITMAP
1C
2C
4C
CC
CC
FE
0C
ENDCHAR
STARTCHAR u0035
ENCODING 53
SWIDTH 1000 0
DWIDTH 8 0
BBX 7 7 0 0
BITMAP
FC
C0
FC
06
06
C6
7C
ENDCHAR
STARTCHAR u0036
ENCODING 54
SWIDTH 1000 0
DWIDTH 8 0
BBX 7 7 0 0
BITMAP
3C
60
C0
FC
C6
C6
7C
ENDCHAR
STARTCHAR u0037
ENCODING 55
SWIDTH 1000 0
DWIDTH 8 0
BBX 7 7 0 0
BITMAP
FE
C6
0C
18
30
30
30
ENDCHAR
STARTCHAR u0038
ENCODING 56
SWIDTH 1000 0
DWIDTH 8 0
BBX 7 7 0 0
BITMAP
7C
C6
C6
7C
C6
C6
7C
ENDCHAR
STARTCHAR u0039
ENCODING 57
SWIDTH 1000 0
DWIDTH 8 0
BBX 7 7 0 0
BITMAP
7C
C6
C6
7E
06
0C
78
ENDCHAR
STARTCHAR u003A
ENCODING 58
SWIDTH 1000 0
DWIDTH 8 0
BBX 2 6 1 0
BITMAP
C0
C0
00
00
C0
C0
ENDCHAR
STARTCHAR u003B
ENCODING 59
SWIDTH 1000 0
DWIDTH 8 0
BBX 3 7 0 -1
BITMAP
60
60
00
00
60
60
C0
ENDCHAR
STARTCHAR u003C
ENCODING 60
SWIDTH 1000 0
DWIDTH 8 0
BBX 5 7 1 0
BITMAP
18
30
60
C0
60
30
18
ENDCHAR
STARTCHAR u003D
ENCODING 61
SWIDTH 1000 0
DWIDTH 8 0
BBX 6 3 1 2
BITMAP
FC
00
FC
ENDCHAR
STARTCHAR u003E
ENCODING 62
SWIDTH 1000 0
DWIDTH 8 0
BBX 5 7 1 0
BITMAP
C0
60
30
18
30
60
C0
ENDCHAR
STARTCHAR u003F
ENCODING 63
SWIDTH 1000 0
DWIDTH 8 0
BBX 7 7 0 0
BITMAP
7C
C6
C6
1C
30
00
30
ENDCHAR
STARTCHAR u0040
ENCODING 64
SWIDTH 1000 0
DWIDTH 8 0
BBX 7 7 0 0
BITMAP
7C
82
BA
AA
BE
80
7C
ENDCHAR
STARTCHAR u0041
ENCODING 65
SWIDTH 1000 0
DWIDTH 8 0
BBX 7 7 0 0
BITMAP
38
6C
C6
C6
FE
C6
C6
ENDCHAR
STARTCHAR u0042
ENCODING 66
SWIDTH 1000 0
DWIDTH 8 0
BBX 7 7 0 0
BITMAP
FC
C6
C6
FC
C6
C6
FC
ENDCHAR
STARTCHAR u0043
ENCODING 67
SWIDTH 1000 0
DWIDTH 8 0
BBX 7 7 0 0
BITMAP
3C
66
C0
C0
C0
66
3C
ENDCHAR
STARTCHAR u0044
ENCODING 68
SWIDTH 1000 0
DWIDTH 8 0
BBX 7 7 0 0
BITMAP
F8
CC
C6
C6
C6
CC
F8
ENDCHAR
STARTCHAR u0045
ENCODING 69
SWIDTH 1000 0
DWIDTH 8 0
BBX 7 7 0 0
BITMAP
FE
C0
C0
FC
C0
C0
FE
ENDCHAR
STARTCHAR u0046
ENCODING 70
SWIDTH 1000 0
DWIDTH 8 0
BBX 7 7 0 0
BITMAP
FE
C0
C0
FC
C0
C0
C0
ENDCHAR
STARTCHAR u0047
ENCODING 71
SWIDTH 1000 0
DWIDTH 8 0
BBX 7 7 0 0
BITMAP
3E
60
C0
CE
C6
66
3E
ENDCHAR
STARTCHAR u0048
ENCODING 72
SWIDTH 1000 0
DWIDTH 8 0
BBX 7 7 0 0
BITMAP
C6
C6
C6
FE
C6
C6
C6
ENDCHAR
STARTCHAR u0049
ENCODING 73
SWIDTH 1000 0
DWIDTH 8 0
BBX 6 7 1 0
BITMAP
FC
30
30
30
30
30
FC
ENDCHAR
STARTCHAR u004A
ENCODING 74
SWIDTH 1000 0
DWIDTH 8 0
BBX 7 7 0 0
BITMAP
06
06
06
06
06
C6
7C
ENDCHAR
STARTCHAR u004B
ENCODING 75
SWIDTH 1000 0
DWIDTH 8 0
BBX 7 7 0 0
BITMAP
C6
CC
D8
F0
F8
DC
CE
ENDCHAR
STARTCHAR u004C
ENCODING 76
SWIDTH 1000 0
DWIDTH 8 0
BBX 7 7 0 0
BITMAP
C0
C0
C0
C0
C0
C0
FE
ENDCHAR
STARTCHAR u004D
ENCODING 77
SWIDTH 1000 0
DWIDTH 8 0
BBX 7 7 0 0
BITMAP
C6
EE
FE
FE
D6
C6
C6
ENDCHAR
STARTCHAR u004E
ENCODING 78
SWIDTH 1000 0
DWIDTH 8 0
BBX 7 7 0 0
BITMAP
C6
E6
F6
FE
DE
CE
C6
ENDCHAR
STARTCHAR u004F
ENCODING 79
SWIDTH 1000 0
DWIDTH 8 0
BBX 7 7 0 0
BITMAP
7C
C6
C6
C6
C6
C6
7C
ENDCHAR
STARTCHAR u0050
ENCODING 80
SWIDTH 1000 0
DWIDTH 8 0
BBX 7 7 0 0
BITMAP
FC
C6
C6
C6
FC
C0
C0
ENDCHAR
STARTCHAR u0051
ENCODING 81
SWIDTH 1000 0
DWIDTH 8 0
BBX 7 7 0 0
BITMAP
7C
C6
C6
C6
D6
CC
7A
ENDCHAR
STARTCHAR u0052
ENCODING 82
SWIDTH 1000 0
DWIDTH 8 0
BBX 7 7 0 0
BITMAP
FC
C6
C6
CC
F8
DC
CE
ENDCHAR
STARTCHAR u0053
ENCODING 83
SWIDTH 1000 0
DWIDTH 8 0
BBX 7 7 0 0
BITMAP
7C
C6
C0
7C
06
C6
7C
ENDCHAR
STARTCHAR u0054
ENCODING 84
SWIDTH 1000 0
DWIDTH 8 0
BBX 6 7 1 0
BITMAP
FC
30
30
30
30
30
30
ENDCHAR
STARTCHAR u0055
ENCODING 85
SWIDTH 1000 0
DWIDTH 8 0
BBX 7 7 0 0
BITMAP
C6
C6
C6
C6
C6
C6
7C
ENDCHAR
STARTCHAR u0056
ENCODING 86
SWIDTH 1000 0
DWIDTH 8 0
BBX 7 7 0 0
BITMAP
C6
C6
C6
C6
6C
38
10
ENDCHAR
STARTCHAR u0057
ENCODING 87
SWIDTH 1000 0
DWIDTH 8 0
BBX 7 7 0 0
BITMAP
C6
C6
C6
D6
FE
6C
44
ENDCHAR
STARTCHAR u0058
ENCODING 88
SWIDTH 1000 0
DWIDTH 8 0
BBX 7 7 0 0
BITMAP
C6
6C
38
38
38
6C
C6
ENDCHAR
STARTCHAR u0059
ENCODING 89
SWIDTH 1000 0
DWIDTH 8 0
BBX 6 7 1 0
BITMAP
CC
CC
CC
78
30
30
30
ENDCHAR
STARTCHAR u005A
ENCODING 90
SWIDTH 1000 0
DWIDTH 8 0
BBX 7 7 0 0
BITMAP
FE
0E
1C
38
70
E0
FE
ENDCHAR
STARTCHAR u005B
ENCODING 91
SWIDTH 1000 0
DWIDTH 8 0
BBX 4 7 2 0
BITMAP
F0
C0
C0
C0
C0
C0
F0
ENDCHAR
STARTCHAR u005C
ENCODING 92
SWIDTH 1000 0
DWIDTH 8 0
BBX 7 7 0 0
BITMAP
80
40
20
10
08
04
02
ENDCHAR
STARTCHAR u005D
ENCODING 93
SWIDTH 1000 0
DWIDTH 8 0
BBX 4 7 1 0
BITMAP
F0
30
30
30
30
30
F0
ENDCHAR
STARTCHAR u005E
ENCODING 94
SWIDTH 1000 0
DWIDTH 8 0
BBX 6 3 1 4
BITMAP
30
68
C4
ENDCHAR
STARTCHAR u005F
ENCODING 95
SWIDTH 1000 0
DWIDTH 8 0
BBX 7 1 0 -1
BITMAP
FE
ENDCHAR
STARTCHAR u0060
ENCODING 96
SWIDTH 1000 0
DWIDTH 8 0
BBX 4 3 2 4
BITMAP
C0
60
30
ENDCHAR
STARTCHAR u0061
ENCODING 97
SWIDTH 1000 0
DWIDTH 8 0
BBX 7 5 0 0
BITMAP
7C
06
7E
C6
7E
ENDCHAR
STARTCHAR u0062
ENCODING 98
SWIDTH 1000 0
DWIDTH 8 0
BBX 7 7 0 0
BITMAP
C0
C0
FC
C6
C6
C6
FC
ENDCHAR
STARTCHAR u0063
ENCODING 99
SWIDTH 1000 0
DWIDTH 8 0
BBX 7 5 0 0
BITMAP
7C
C6
C0
C6
7C
ENDCHAR
STARTCHAR u0064
ENCODING 100
SWIDTH 1000 0
DWIDTH 8 0
BBX 7 7 0 0
BITMAP
06
06
7E
C6
C6
C6
7E
ENDCHAR
STARTCHAR u0065
ENCODING 101
SWIDTH 1000 0
DWIDTH 8 0
BBX 7 5 0 0
BITMAP
7C
C6
FE
C0
7C
ENDCHAR
STARTCHAR u0066
ENCODING 102
SWIDTH 1000 0
DWIDTH 8 0
BBX 7 7 0 0
BITMAP
1E
30
FE
30
30
30
30
ENDCHAR
STARTCHAR u0067
ENCODING 103
SWIDTH 1000 0
DWIDTH 8 0
BBX 7 6 0 -1
BITMAP
7E
C6
C6
7E
06
7C
ENDCHAR
STARTCHAR u0068
ENCODING 104
SWIDTH 1000 0
DWIDTH 8 0
BBX 7 7 0 0
BITMAP
C0
C0
FC
C6
C6
C6
C6
ENDCHAR
STARTCHAR u0069
ENCODING 105
SWIDTH 1000 0
DWIDTH 8 0
BBX 4 7 2 0
BITMAP
60
00
E0
60
60
60
F0
ENDCHAR
STARTCHAR u006A
ENCODING 106
SWIDTH 1000 0
DWIDTH 8 0
BBX 5 8 1 -1
BITMAP
18
00
18
18
18
18
18
F0
ENDCHAR
STARTCHAR u006B
ENCODING 107
SWIDTH 1000 0
DWIDTH 8 0
BBX 7 7 0 0
BITMAP
C0
C0
CE
FC
F8
DC
CE
ENDCHAR
STARTCHAR u006C
ENCODING 108
SWIDTH 1000 0
DWIDTH 8 0
BBX 5 7 2 0
BITMAP
C0
C0
C0
C0
C0
C0
78
ENDCHAR
STARTCHAR u006D
ENCODING 109
SWIDTH 1000 0
DWIDTH 8 0
BBX 7 5 0 0
BITMAP
EC
FE
D6
C6
C6
ENDCHAR
STARTCHAR u006E
ENCODING 110
SWIDTH 1000 0
DWIDTH 8 0
BBX 7 5 0 0
BITMAP
FC
C6
C6
C6
C6
ENDCHAR
STARTCHAR u006F
ENCODING 111
SWIDTH 1000 0
DWIDTH 8 0
BBX 7 5 0 0
BITMAP
7C
C6
C6
C6
7C
ENDCHAR
STARTCHAR u0070
ENCODING 112
SWIDTH 1000 0
DWIDTH 8 0
BBX 7 6 0 -1
BITMAP
FC
C6
C6
FC
C0
C0
ENDCHAR
STARTCHAR u0071
ENCODING 113
SWIDTH 1000 0
DWIDTH 8 0
BBX 7 6 0 -1
BITMAP
7E
C6
C6
7E
06
06
ENDCHAR
STARTCHAR u0072
ENCODING 114
SWIDTH 1000 0
DWIDTH 8 0
BBX 6 5 1 0
BITMAP
DC
E0
C0
C0
C0
ENDCHAR
STARTCHAR u0073
ENCODING 115
SWIDTH 1000 0
DWIDTH 8 0
BBX 7 5 0 0
BITMAP
7C
C0
7C
06
FC
ENDCHAR
STARTCHAR u0074
ENCODING 116
SWIDTH 1000 0
DWIDTH 8 0
BBX 7 7 0 0
BITMAP
30
30
FE
30
30
30
1E
ENDCHAR
STARTCHAR u0075
ENCODING 117
SWIDTH 1000 0
DWIDTH 8 0
BBX 7 5 0 0
BITMAP
C6
C6
C6
C6
7E
ENDCHAR
STARTCHAR u0076
ENCODING 118
SWIDTH 1000 0
DWIDTH 8 0
BBX 7 5 0 0
BITMAP
C6
C6
6C
38
10
ENDCHAR
STARTCHAR u0077
ENCODING 119
SWIDTH 1000 0
DWIDTH 8 0
BBX 7 5 0 0
BITMAP
C6
C6
D6
FE
6C
ENDCHAR
STARTCHAR u0078
ENCODING 120
SWIDTH 1000 0
DWIDTH 8 0
BBX 7 5 0 0
BITMAP
C6
6C
38
6C
C6
ENDCHAR
STARTCHAR u0079
ENCODING 121
SWIDTH 1000 0
DWIDTH 8 0
BBX 7 6 0 -1
BITMAP
C6
C6
C6
7E
06
7C
ENDCHAR
STARTCHAR u007A
ENCODING 122
SWIDTH 1000 0
DWIDTH 8 0
BBX 7 5 0 0
BITMAP
FE
1C
38
70
FE
ENDCHAR
STARTCHAR u007B
ENCODING 123
SWIDTH 1000 0
DWIDTH 8 0
BBX 5 7 1 0
BITMAP
38
60
60
C0
60
60
38
ENDCHAR
STARTCHAR u007C
ENCODING 124
SWIDTH 1000 0
DWIDTH 8 0
BBX 2 7 3 0
BITMAP
C0
C0
C0
C0
C0
C0
C0
ENDCHAR
STARTCHAR u007D
ENCODING 125
SWIDTH 1000 0
DWIDTH 8 0
BBX 5 7 1 0
BITMAP
E0
30
30
18
30
30
E0
ENDCHAR
STARTCHAR u007E
ENCODING 126
SWIDTH 1000 0
DWIDTH 8 0
BBX 7 3 0 2
BITMAP
60
92
0C
ENDCHAR
STARTCHAR u00A9
ENCODING 169
SWIDTH 1000 0
DWIDTH 8 0
BBX 8 8 0 -1
BITMAP
3C
42
99
A1
A1
99
42
3C
ENDCHAR
STARTCHAR u2018
ENCODING 8216
SWIDTH 1000 0
DWIDTH 8 0
BBX 2 4 2 3
BITMAP
40
80
C0
C0
ENDCHAR
STARTCHAR u2019
ENCODING 8217
SWIDTH 1000 0
DWIDTH 8 0
BBX 2 4 2 3
BITMAP
C0
C0
40
80
ENDCHAR
STARTCHAR u201C
ENCODING 8220
SWIDTH 1000 0
DWIDTH 8 0
BBX 5 4 1 3
BITMAP
48
90
D8
D8
ENDCHAR
STARTCHAR u201D
ENCODING 8221
SWIDTH 1000 0
DWIDTH 8 0
BBX 5 4 1 3
BITMAP
D8
D8
48
90
ENDCHAR
STARTCHAR u2605
ENCODING 9733
SWIDTH 1000 0
DWIDTH 8 0
BBX 7 7 0 0
BITMAP
10
10
FE
7C
38
6C
44
ENDCHAR
STARTCHAR u2660
ENCODING 9824
SWIDTH 1000 0
DWIDTH 8 0
BBX 7 7 0 0
BITMAP
10
38
7C
FE
FE
54
38
ENDCHAR
STARTCHAR u2663
ENCODING 9827
SWIDTH 1000 0
DWIDTH 8 0
BBX 7 7 0 0
BITMAP
10
38
54
FE
54
10
38
ENDCHAR
STARTCHAR u2665
ENCODING 9829
SWIDTH 1000 0
DWIDTH 8 0
BBX 7 7 0 0
BITMAP
6C
FE
FE
FE
7C
38
10
ENDCHAR
STARTCHAR u2666
ENCODING 9830
SWIDTH 1000 0
DWIDTH 8 0
BBX 7 7 0 0
BITMAP
10
38
7C
FE
7C
38
10
ENDCHAR
STARTCHAR uFF10
ENCODING 65296
SWIDTH 1000 0
DWIDTH 8 0
BBX 7 7 0 0
BITMAP
7C
CE
CE
CE
CE
CE
7C
ENDCHAR
STARTCHAR uFF11
ENCODING 65297
SWIDTH 1000 0
DWIDTH 8 0
BBX 7 7 0 0
BITMAP
38
78
38
38
38
38
FE
ENDCHAR
STARTCHAR uFF12
ENCODING 65298
SWIDTH 1000 0
DWIDTH 8 0
BBX 7 7 0 0
BITMAP
FC
06
3E
70
E0
E0
FE
ENDCHAR
STARTCHAR uFF13
ENCODING 65299
SWIDTH 1000 0
DWIDTH 8 0
BBX 7 7 0 0
BITMAP
FC
0E
7C
0E
0E
0E
FC
ENDCHAR
STARTCHAR uFF14
ENCODING 65300
SWIDTH 1000 0
DWIDTH 8 0
BBX 7 7 0 0
BITMAP
1E
2E
4E
CE
CE
FE
0E
ENDCHAR
STARTCHAR uFF15
ENCODING 65301
SWIDTH 1000 0
DWIDTH 8 0
BBX 7 7 0 0
BITMAP
FC
C0
FC
0E
0E
CE
7C
ENDCHAR
STARTCHAR uFF16
ENCODING 65302
SWIDTH 1000 0
DWIDTH 8 0
BBX 7 7 0 0
BITMAP
7C
C0
FC
CE
CE
CE
7C
ENDCHAR
STARTCHAR uFF17
ENCODING 65303
SWIDTH 1000 0
DWIDTH 8 0
BBX 7 7 0 0
BITMAP
FE
0E
1C
38
38
38
38
ENDCHAR
STARTCHAR uFF18
ENCODING 65304
SWIDTH 1000 0
DWIDTH 8 0
BBX 7 7 0 0
BITMAP
7C
CE
7C
E6
E6
E6
7C
ENDCHAR
STARTCHAR uFF19
ENCODING 65305
SWIDTH 1000 0
DWIDTH 8 0
BBX 7 7 0 0
BITMAP
7C
E6
E6
E6
7E
0E
0E
ENDCHAR
ENDFONT
